<svg width="53" height="53" viewBox="0 0 53 53" fill="none" xmlns="http://www.w3.org/2000/svg">
<path d="M0.480957 11.7215C0.480957 5.5135 5.5135 0.480957 11.7215 0.480957H41.6961C47.9041 0.480957 52.9367 5.5135 52.9367 11.7215V41.6961C52.9367 47.9041 47.9041 52.9367 41.6961 52.9367H11.7215C5.5135 52.9367 0.480957 47.9041 0.480957 41.6961V11.7215Z" fill="#51BC74"/>
<path d="M16.0537 20.9714C16.0537 30.0244 23.3931 37.3638 32.4461 37.3638H34.905C35.5571 37.3638 36.1825 37.1048 36.6437 36.6437C37.1048 36.1825 37.3638 35.5571 37.3638 34.905V33.4056C37.3638 32.8417 36.9803 32.3499 36.4328 32.2133L31.5992 31.0047C31.1183 30.8845 30.6134 31.0648 30.3173 31.4604L29.2572 32.8734C28.9491 33.2843 28.4169 33.4657 27.9349 33.2887C26.1458 32.6309 24.5211 31.5922 23.1732 30.2443C21.8254 28.8964 20.7866 27.2717 20.1289 25.4826C19.9518 25.0007 20.1332 24.4685 20.5441 24.1603L21.9572 23.1003C22.3539 22.8041 22.5331 22.2981 22.4129 21.8184L21.2042 16.9848C21.1377 16.7189 20.9842 16.4829 20.7682 16.3142C20.5522 16.1455 20.286 16.0538 20.0119 16.0537H18.5126C17.8604 16.0537 17.235 16.3128 16.7739 16.7739C16.3128 17.235 16.0537 17.8604 16.0537 18.5126V20.9714Z" stroke="white" stroke-width="1.40506" stroke-linecap="round" stroke-linejoin="round"/>
</svg>
