<svg width="53" height="53" viewBox="0 0 53 53" fill="none" xmlns="http://www.w3.org/2000/svg">
<path d="M0.480957 11.6204C0.480957 5.41243 5.5135 0.379883 11.7215 0.379883H41.6961C47.9041 0.379883 52.9367 5.41243 52.9367 11.6204V41.5951C52.9367 47.803 47.9041 52.8356 41.6961 52.8356H11.7215C5.5135 52.8356 0.480957 47.803 0.480957 41.5951V11.6204Z" fill="#51BC74"/>
<path d="M37.3638 20.8705V32.3452C37.3638 32.9973 37.1048 33.6227 36.6437 34.0838C36.1825 34.545 35.5571 34.804 34.905 34.804H18.5126C17.8604 34.804 17.235 34.545 16.7739 34.0838C16.3128 33.6227 16.0537 32.9973 16.0537 32.3452V20.8705M37.3638 20.8705C37.3638 20.2184 37.1048 19.5929 36.6437 19.1318C36.1825 18.6707 35.5571 18.4116 34.905 18.4116H18.5126C17.8604 18.4116 17.235 18.6707 16.7739 19.1318C16.3128 19.5929 16.0537 20.2184 16.0537 20.8705M37.3638 20.8705V21.136C37.3639 21.5558 37.2564 21.9687 37.0518 22.3352C36.8471 22.7017 36.552 23.0097 36.1945 23.2299L27.9983 28.2733C27.6106 28.5121 27.1642 28.6386 26.7088 28.6386C26.2534 28.6386 25.807 28.5121 25.4192 28.2733L17.223 23.231C16.8656 23.0108 16.5705 22.7028 16.3658 22.3363C16.1611 21.9698 16.0537 21.5569 16.0537 21.1371V20.8705" stroke="white" stroke-width="1.40506" stroke-linecap="round" stroke-linejoin="round"/>
</svg>
