<svg width="53" height="53" viewBox="0 0 53 53" fill="none" xmlns="http://www.w3.org/2000/svg">
<path d="M0.480957 11.5188C0.480957 5.31087 5.5135 0.27832 11.7215 0.27832H41.6961C47.9041 0.27832 52.9367 5.31087 52.9367 11.5188V41.4935C52.9367 47.7015 47.9041 52.734 41.6961 52.734H11.7215C5.5135 52.734 0.480957 47.7015 0.480957 41.4935V11.5188Z" fill="#51BC74"/>
<path d="M29.9871 24.8669C29.9871 25.7364 29.6417 26.5703 29.0269 27.1851C28.4121 27.7999 27.5782 28.1453 26.7087 28.1453C25.8391 28.1453 25.0053 27.7999 24.3904 27.1851C23.7756 26.5703 23.4302 25.7364 23.4302 24.8669C23.4302 23.9974 23.7756 23.1635 24.3904 22.5486C25.0053 21.9338 25.8391 21.5884 26.7087 21.5884C27.5782 21.5884 28.4121 21.9338 29.0269 22.5486C29.6417 23.1635 29.9871 23.9974 29.9871 24.8669V24.8669Z" stroke="white" stroke-width="1.40506" stroke-linecap="round" stroke-linejoin="round"/>
<path d="M34.9046 24.8671C34.9046 32.6721 26.7084 37.1614 26.7084 37.1614C26.7084 37.1614 18.5122 32.6721 18.5122 24.8671C18.5122 22.6933 19.3757 20.6086 20.9128 19.0715C22.4499 17.5344 24.5346 16.6709 26.7084 16.6709C28.8822 16.6709 30.9669 17.5344 32.504 19.0715C34.0411 20.6086 34.9046 22.6933 34.9046 24.8671V24.8671Z" stroke="white" stroke-width="1.40506" stroke-linecap="round" stroke-linejoin="round"/>
</svg>
