<svg width="15" height="16" viewBox="0 0 15 16" fill="none" xmlns="http://www.w3.org/2000/svg">
<path d="M4.96151 0.600882L4.74142 1.03802H1.80681C1.26575 1.03802 0.828613 1.47515 0.828613 2.01622C0.828613 2.55728 1.26575 2.99442 1.80681 2.99442H13.5452C14.0863 2.99442 14.5234 2.55728 14.5234 2.01622C14.5234 1.47515 14.0863 1.03802 13.5452 1.03802H10.6106L10.3905 0.600882C10.2255 0.267682 9.88614 0.0598145 9.51626 0.0598145H5.83578C5.4659 0.0598145 5.12658 0.267682 4.96151 0.600882ZM13.5452 3.97262H1.80681L2.45487 14.3354C2.50378 15.1088 3.14573 15.711 3.91912 15.711H11.4329C12.2063 15.711 12.8483 15.1088 12.8972 14.3354L13.5452 3.97262Z" fill="#9CA3AF"/>
</svg>
