<svg width="17" height="16" viewBox="0 0 17 16" fill="none" xmlns="http://www.w3.org/2000/svg">
<path d="M8.4999 6.38295L11.3775 5.23345L4.25245 2.38345L1.79575 3.36575C1.6718 3.4151 1.55539 3.48161 1.44995 3.56335L8.4999 6.3839V6.38295ZM0.933153 4.3813C0.910992 4.48208 0.899844 4.58497 0.899903 4.68815V11.9519C0.899855 12.2367 0.98518 12.515 1.14486 12.7509C1.30455 12.9868 1.53127 13.1694 1.79575 13.2752L7.2649 15.4631C7.5119 15.5619 7.7665 15.6293 8.0249 15.6664V7.21705L0.933153 4.38035V4.3813ZM8.9749 15.6673C9.23539 15.6299 9.49051 15.5616 9.7349 15.464L15.2041 13.2762C15.4687 13.1703 15.6955 12.9876 15.8552 12.7515C16.0149 12.5154 16.1001 12.2369 16.0999 11.9519V4.68815C16.0999 4.58365 16.0885 4.4801 16.0667 4.38035L8.9749 7.21705V15.6664V15.6673ZM15.5499 3.5643L12.6562 4.72235L5.53115 1.87235L7.2649 1.17695C8.05769 0.859798 8.94211 0.859798 9.7349 1.17695L15.2041 3.3648C15.328 3.41416 15.4444 3.48067 15.5499 3.5624V3.5643Z" fill="#707070"/>
</svg>
