<svg width="69" height="69" viewBox="0 0 69 69" fill="none" xmlns="http://www.w3.org/2000/svg">
<path d="M34.5 69C53.5538 69 69 53.5538 69 34.5C69 15.4462 53.5538 0 34.5 0C15.4462 0 0 15.4462 0 34.5C0 53.5538 15.4462 69 34.5 69Z" fill="#51BC74"/>
<path d="M35.3708 42.2272C36.8944 43.7508 36.8944 46.3628 35.3708 47.8865L32.2146 51.0426C30.691 52.5663 28.079 52.5663 26.5553 51.0426L12.7336 37.112C11.2099 35.5884 11.2099 32.9764 12.7336 31.4527L15.8897 28.2966C17.4134 26.7729 20.0254 26.7729 21.549 28.2966L35.3708 42.2272Z" fill="white"/>
<path d="M47.4512 18.175C48.9749 16.6513 51.5868 16.6513 53.1105 18.175L56.2667 21.3311C57.7903 22.8548 57.7903 25.4668 56.2667 26.9904L32.3234 50.8248C30.7998 52.3485 28.1878 52.3485 26.6641 50.8248L23.508 47.6687C21.9843 46.145 21.9843 43.533 23.508 42.0094L47.4512 18.175Z" fill="white"/>
</svg>
