<svg width="21" height="20" viewBox="0 0 21 20" fill="none" xmlns="http://www.w3.org/2000/svg">
<g clip-path="url(#clip0_2102_16)">
<path d="M20.691 4.35922C20.5037 4.033 20.2353 3.76115 19.9122 3.57018C19.5891 3.37921 19.2223 3.27564 18.8475 3.26958H4.96672L4.33774 0.80698C4.2742 0.569261 4.13242 0.360165 3.9355 0.213747C3.73858 0.0673289 3.49813 -0.00778361 3.25331 0.00064287H1.08444C0.796826 0.00064287 0.520995 0.115444 0.317624 0.319793C0.114253 0.524141 0 0.801296 0 1.09029C0 1.37928 0.114253 1.65644 0.317624 1.86078C0.520995 2.06513 0.796826 2.17993 1.08444 2.17993H2.42914L5.42218 13.3597C5.48573 13.5974 5.62751 13.8065 5.82442 13.9529C6.02134 14.0993 6.26179 14.1745 6.50661 14.166H16.2665C16.4668 14.1654 16.663 14.1091 16.8333 14.0033C17.0037 13.8975 17.1416 13.7464 17.2317 13.5667L20.7886 6.41865C20.9428 6.09396 21.0146 5.73596 20.9975 5.37661C20.9805 5.01726 20.8752 4.66773 20.691 4.35922ZM15.5942 11.9867H7.33079L5.56316 5.44887H18.8475L15.5942 11.9867Z" fill="#353535"/>
<path d="M5.87995 20C6.80779 20 7.55995 19.2538 7.55995 18.3333C7.55995 17.4129 6.80779 16.6667 5.87995 16.6667C4.95211 16.6667 4.19995 17.4129 4.19995 18.3333C4.19995 19.2538 4.95211 20 5.87995 20Z" fill="#353535"/>
<path d="M15.96 20C16.8879 20 17.64 19.2538 17.64 18.3333C17.64 17.4129 16.8879 16.6667 15.96 16.6667C15.0322 16.6667 14.28 17.4129 14.28 18.3333C14.28 19.2538 15.0322 20 15.96 20Z" fill="#353535"/>
</g>
<defs>
<clipPath id="clip0_2102_16">
<rect width="21" height="20" fill="white"/>
</clipPath>
</defs>
</svg>
